<svg width="20" height="16" viewBox="0 0 20 16" fill="none" xmlns="http://www.w3.org/2000/svg">
<path d="M7 8C7.79113 8 8.56448 7.76541 9.22228 7.32588C9.88008 6.88635 10.3928 6.26164 10.6955 5.53074C10.9983 4.79983 11.0775 3.99556 10.9231 3.21964C10.7688 2.44372 10.3878 1.73098 9.82843 1.17157C9.26902 0.612165 8.55628 0.231202 7.78036 0.0768607C7.00444 -0.0774802 6.20017 0.00173312 5.46927 0.304484C4.73836 0.607234 4.11365 1.11992 3.67412 1.77772C3.2346 2.43552 3 3.20888 3 4C3 5.06087 3.42143 6.07828 4.17157 6.82843C4.92172 7.57857 5.93913 8 7 8ZM10 10C10.0023 9.66598 10.0894 9.33801 10.2531 9.04688C10.1031 9.03125 9.95625 9 9.8 9H9.27812C8.56383 9.3294 7.78659 9.49999 7 9.49999C6.21341 9.49999 5.43617 9.3294 4.72188 9H4.2C3.08617 9.00025 2.01802 9.44283 1.23043 10.2304C0.442827 11.018 0.00024854 12.0862 0 13.2L0 14.5C0 14.8978 0.158035 15.2794 0.43934 15.5607C0.720644 15.842 1.10218 16 1.5 16H10.2781C10.0984 15.6972 10.0024 15.3521 10 15V10ZM19 9H18V6.5C18 5.83696 17.7366 5.20108 17.2678 4.73223C16.7989 4.26339 16.163 4 15.5 4C14.837 4 14.2011 4.26339 13.7322 4.73223C13.2634 5.20108 13 5.83696 13 6.5V9H12C11.7348 9 11.4804 9.10536 11.2929 9.29289C11.1054 9.48043 11 9.73478 11 10V15C11 15.2652 11.1054 15.5196 11.2929 15.7071C11.4804 15.8946 11.7348 16 12 16H19C19.2652 16 19.5196 15.8946 19.7071 15.7071C19.8946 15.5196 20 15.2652 20 15V10C20 9.73478 19.8946 9.48043 19.7071 9.29289C19.5196 9.10536 19.2652 9 19 9ZM15.5 13.5C15.3022 13.5 15.1089 13.4414 14.9444 13.3315C14.78 13.2216 14.6518 13.0654 14.5761 12.8827C14.5004 12.7 14.4806 12.4989 14.5192 12.3049C14.5578 12.1109 14.653 11.9327 14.7929 11.7929C14.9327 11.653 15.1109 11.5578 15.3049 11.5192C15.4989 11.4806 15.7 11.5004 15.8827 11.5761C16.0654 11.6518 16.2216 11.78 16.3315 11.9444C16.4414 12.1089 16.5 12.3022 16.5 12.5C16.5 12.7652 16.3946 13.0196 16.2071 13.2071C16.0196 13.3946 15.7652 13.5 15.5 13.5ZM16.5 9H14.5V6.5C14.5 6.23478 14.6054 5.98043 14.7929 5.79289C14.9804 5.60536 15.2348 5.5 15.5 5.5C15.7652 5.5 16.0196 5.60536 16.2071 5.79289C16.3946 5.98043 16.5 6.23478 16.5 6.5V9Z" fill="#65236A"/>
</svg>
