<svg width="428" height="91" viewBox="0 0 428 91" fill="none" xmlns="http://www.w3.org/2000/svg">
<g filter="url(#filter0_d_100_249)">
<rect width="428" height="91" fill="white"/>
</g>
<path d="M25.2387 59.9171L31.8388 53.2415C32.1571 52.9195 32.6732 52.9195 32.9915 53.2415L33.7613 54.0201C34.079 54.3415 34.0797 54.8624 33.7626 55.1846L28.5319 60.5L33.7626 65.8154C34.0797 66.1376 34.079 66.6585 33.7613 66.9799L32.9915 67.7585C32.6732 68.0805 32.1571 68.0805 31.8388 67.7585L25.2387 61.0829C24.9204 60.761 24.9204 60.239 25.2387 59.9171Z" fill="#949494"/>
<path d="M382.378 54.7047L382.545 55.5H383.357H398.983L397.124 63.5H385.448H384.217L384.469 64.7047L384.731 65.9547L384.897 66.75H385.71H396.369L396.253 67.25H394.602H386.231H384.436L381.728 54.2953L381.561 53.5H380.749H378V53H382.022L382.378 54.7047ZM396.388 66.669L396.388 66.6691L396.388 66.669ZM395.294 68.972L396.013 68.283L395.986 68.4015L396.713 68.7469C397.132 68.946 397.403 69.356 397.403 69.8125C397.403 70.4477 396.87 71 396.167 71C395.463 71 394.931 70.4477 394.931 69.8125C394.931 69.4879 395.066 69.1911 395.294 68.972ZM384.683 68.4278L384.61 68.0819L385.539 68.972C385.768 69.1911 385.903 69.4879 385.903 69.8125C385.903 70.4477 385.37 71 384.667 71C383.963 71 383.431 70.4477 383.431 69.8125C383.431 69.3846 383.668 68.9987 384.044 68.787L384.683 68.4278ZM382.012 52.9542L382.012 52.9543L382.012 52.9542Z" stroke="#65236A" stroke-width="2"/>
<circle cx="401" cy="53" r="5" fill="#F80000"/>
<defs>
<filter id="filter0_d_100_249" x="-5" y="-4" width="438" height="101" filterUnits="userSpaceOnUse" color-interpolation-filters="sRGB">
<feFlood flood-opacity="0" result="BackgroundImageFix"/>
<feColorMatrix in="SourceAlpha" type="matrix" values="0 0 0 0 0 0 0 0 0 0 0 0 0 0 0 0 0 0 127 0" result="hardAlpha"/>
<feOffset dy="1"/>
<feGaussianBlur stdDeviation="2.5"/>
<feComposite in2="hardAlpha" operator="out"/>
<feColorMatrix type="matrix" values="0 0 0 0 0 0 0 0 0 0 0 0 0 0 0 0 0 0 0.2 0"/>
<feBlend mode="normal" in2="BackgroundImageFix" result="effect1_dropShadow_100_249"/>
<feBlend mode="normal" in="SourceGraphic" in2="effect1_dropShadow_100_249" result="shape"/>
</filter>
</defs>
</svg>
