<svg width="26" height="18" viewBox="0 0 26 18" fill="none" xmlns="http://www.w3.org/2000/svg">
<path d="M17.1053 9.00125C16.4263 9.00125 15.7874 8.63965 15.4419 8.0611L12.8585 3.77817L10.2791 8.0611C9.92957 8.64367 9.29074 9.00527 8.61174 9.00527C8.43094 9.00527 8.25015 8.98116 8.07738 8.92893L2.57306 7.35397V14.5056C2.57306 15.0962 2.97484 15.6105 3.54536 15.7511L12.2317 17.9247C12.6415 18.0251 13.0714 18.0251 13.4772 17.9247L22.1717 15.7511C22.7422 15.6064 23.144 15.0922 23.144 14.5056V7.35397L17.6396 8.92491C17.4669 8.97714 17.2861 9.00125 17.1053 9.00125ZM25.647 4.49333L23.5779 0.363083C23.4533 0.113982 23.1841 -0.0306569 22.9069 0.00550283L12.8585 1.28717L16.5428 7.39817C16.6955 7.65128 17.0008 7.77182 17.2861 7.69146L25.2372 5.42143C25.635 5.30492 25.8278 4.86297 25.647 4.49333ZM2.13914 0.363083L0.0700023 4.49333C-0.114814 4.86297 0.0820556 5.30492 0.475795 5.41741L8.42693 7.68744C8.71219 7.7678 9.01754 7.64727 9.17021 7.39415L12.8585 1.28717L2.80609 0.00550283C2.52887 -0.0266392 2.26369 0.113982 2.13914 0.363083Z" fill="#843D89" fill-opacity="0.9"/>
</svg>
