<svg width="428" height="91" viewBox="0 0 428 91" fill="none" xmlns="http://www.w3.org/2000/svg">
<g filter="url(#filter0_d_108_668)">
<path d="M0 0H428V91H0V0Z" fill="white"/>
<path d="M58.2559 62.2959C56.8086 61.8799 55.7539 61.3701 55.0918 60.7666C54.4355 60.1572 54.1074 59.4072 54.1074 58.5166C54.1074 57.5088 54.5088 56.6768 55.3115 56.0205C56.1201 55.3584 57.1689 55.0273 58.458 55.0273C59.3369 55.0273 60.1191 55.1973 60.8047 55.5371C61.4961 55.877 62.0293 56.3457 62.4043 56.9434C62.7852 57.541 62.9756 58.1943 62.9756 58.9033H61.2793C61.2793 58.1299 61.0332 57.5234 60.541 57.084C60.0488 56.6387 59.3545 56.416 58.458 56.416C57.626 56.416 56.9756 56.6006 56.5068 56.9697C56.0439 57.333 55.8125 57.8398 55.8125 58.4902C55.8125 59.0117 56.0322 59.4541 56.4717 59.8174C56.917 60.1748 57.6699 60.5029 58.7305 60.8018C59.7969 61.1006 60.6289 61.4316 61.2266 61.7949C61.8301 62.1523 62.2754 62.5713 62.5625 63.0518C62.8555 63.5322 63.002 64.0977 63.002 64.748C63.002 65.7852 62.5977 66.6172 61.7891 67.2441C60.9805 67.8652 59.8994 68.1758 58.5459 68.1758C57.667 68.1758 56.8467 68.0088 56.085 67.6748C55.3232 67.335 54.7344 66.8721 54.3184 66.2861C53.9082 65.7002 53.7031 65.0352 53.7031 64.291H55.3994C55.3994 65.0645 55.6836 65.6768 56.252 66.1279C56.8262 66.5732 57.5908 66.7959 58.5459 66.7959C59.4365 66.7959 60.1191 66.6143 60.5938 66.251C61.0684 65.8877 61.3057 65.3926 61.3057 64.7656C61.3057 64.1387 61.0859 63.6553 60.6465 63.3154C60.207 62.9697 59.4102 62.6299 58.2559 62.2959ZM76.6366 62.0146C76.6366 63.2686 76.4257 64.3643 76.0038 65.3018C75.5819 66.2334 74.9843 66.9453 74.2108 67.4375C73.4374 67.9297 72.535 68.1758 71.5038 68.1758C70.496 68.1758 69.6024 67.9297 68.8231 67.4375C68.0438 66.9395 67.4374 66.2334 67.0038 65.3193C66.5761 64.3994 66.3563 63.3359 66.3446 62.1289V61.2061C66.3446 59.9756 66.5585 58.8887 66.9862 57.9453C67.4139 57.002 68.0175 56.2812 68.7968 55.7832C69.5819 55.2793 70.4784 55.0273 71.4862 55.0273C72.5116 55.0273 73.4139 55.2764 74.1932 55.7744C74.9784 56.2666 75.5819 56.9844 76.0038 57.9277C76.4257 58.8652 76.6366 59.958 76.6366 61.2061V62.0146ZM74.9579 61.1885C74.9579 59.6709 74.6532 58.5078 74.0438 57.6992C73.4345 56.8848 72.5819 56.4775 71.4862 56.4775C70.4198 56.4775 69.579 56.8848 68.9638 57.6992C68.3544 58.5078 68.0409 59.6328 68.0233 61.0742V62.0146C68.0233 63.4854 68.3309 64.6426 68.9462 65.4863C69.5673 66.3242 70.4198 66.7432 71.5038 66.7432C72.5936 66.7432 73.4374 66.3477 74.035 65.5566C74.6327 64.7598 74.9403 63.6201 74.9579 62.1377V61.1885ZM87.8455 62.3486H82.4753V68H80.7878V55.2031H88.7156V56.5918H82.4753V60.9688H87.8455V62.3486ZM97.9293 64.6602H92.568L91.3639 68H89.6237L94.5104 55.2031H95.987L100.882 68H99.151L97.9293 64.6602ZM93.0778 63.2715H97.4284L95.2487 57.2861L93.0778 63.2715ZM107.996 62.2959C106.548 61.8799 105.494 61.3701 104.832 60.7666C104.175 60.1572 103.847 59.4072 103.847 58.5166C103.847 57.5088 104.249 56.6768 105.051 56.0205C105.86 55.3584 106.909 55.0273 108.198 55.0273C109.077 55.0273 109.859 55.1973 110.544 55.5371C111.236 55.877 111.769 56.3457 112.144 56.9434C112.525 57.541 112.715 58.1943 112.715 58.9033H111.019C111.019 58.1299 110.773 57.5234 110.281 57.084C109.789 56.6387 109.094 56.416 108.198 56.416C107.366 56.416 106.715 56.6006 106.247 56.9697C105.784 57.333 105.552 57.8398 105.552 58.4902C105.552 59.0117 105.772 59.4541 106.211 59.8174C106.657 60.1748 107.41 60.5029 108.47 60.8018C109.537 61.1006 110.369 61.4316 110.966 61.7949C111.57 62.1523 112.015 62.5713 112.302 63.0518C112.595 63.5322 112.742 64.0977 112.742 64.748C112.742 65.7852 112.337 66.6172 111.529 67.2441C110.72 67.8652 109.639 68.1758 108.286 68.1758C107.407 68.1758 106.586 68.0088 105.825 67.6748C105.063 67.335 104.474 66.8721 104.058 66.2861C103.648 65.7002 103.443 65.0352 103.443 64.291H105.139C105.139 65.0645 105.423 65.6768 105.992 66.1279C106.566 66.5732 107.331 66.7959 108.286 66.7959C109.176 66.7959 109.859 66.6143 110.334 66.251C110.808 65.8877 111.045 65.3926 111.045 64.7656C111.045 64.1387 110.826 63.6553 110.386 63.3154C109.947 62.9697 109.15 62.6299 107.996 62.2959Z" fill="white"/>
<path d="M25.2387 59.9171L31.8388 53.2415C32.1571 52.9195 32.6732 52.9195 32.9915 53.2415L33.7613 54.0201C34.079 54.3415 34.0797 54.8624 33.7626 55.1846L28.5319 60.5L33.7626 65.8154C34.0797 66.1376 34.079 66.6585 33.7613 66.9799L32.9915 67.7585C32.6732 68.0805 32.1571 68.0805 31.8388 67.7585L25.2387 61.0829C24.9204 60.761 24.9204 60.239 25.2387 59.9171Z" fill="white"/>
</g>
<defs>
<filter id="filter0_d_108_668" x="-5" y="-4" width="438" height="101" filterUnits="userSpaceOnUse" color-interpolation-filters="sRGB">
<feFlood flood-opacity="0" result="BackgroundImageFix"/>
<feColorMatrix in="SourceAlpha" type="matrix" values="0 0 0 0 0 0 0 0 0 0 0 0 0 0 0 0 0 0 127 0" result="hardAlpha"/>
<feOffset dy="1"/>
<feGaussianBlur stdDeviation="2.5"/>
<feComposite in2="hardAlpha" operator="out"/>
<feColorMatrix type="matrix" values="0 0 0 0 0 0 0 0 0 0 0 0 0 0 0 0 0 0 0.2 0"/>
<feBlend mode="normal" in2="BackgroundImageFix" result="effect1_dropShadow_108_668"/>
<feBlend mode="normal" in="SourceGraphic" in2="effect1_dropShadow_108_668" result="shape"/>
</filter>
</defs>
</svg>
