<svg width="11" height="15" viewBox="0 0 11 15" fill="none" xmlns="http://www.w3.org/2000/svg">
<path d="M9.625 1.875H7.33333C7.33333 0.84082 6.5112 0 5.5 0C4.4888 0 3.66667 0.84082 3.66667 1.875H1.375C0.615885 1.875 0 2.50488 0 3.28125V13.5938C0 14.3701 0.615885 15 1.375 15H9.625C10.3841 15 11 14.3701 11 13.5938V3.28125C11 2.50488 10.3841 1.875 9.625 1.875ZM5.5 1.17188C5.88099 1.17188 6.1875 1.48535 6.1875 1.875C6.1875 2.26465 5.88099 2.57812 5.5 2.57812C5.11901 2.57812 4.8125 2.26465 4.8125 1.875C4.8125 1.48535 5.11901 1.17188 5.5 1.17188ZM8.97188 7.96289L4.87552 12.1172C4.74089 12.2549 4.52318 12.252 4.38854 12.1143L2.0224 9.67383C1.88776 9.53613 1.89062 9.31348 2.02526 9.17578L2.8388 8.34961C2.97344 8.21191 3.19115 8.21484 3.32578 8.35254L4.64349 9.71191L7.67995 6.62988C7.81458 6.49219 8.03229 6.49512 8.16693 6.63281L8.97474 7.46484C9.10938 7.60547 9.10651 7.82519 8.97188 7.96289Z" fill="white"/>
</svg>
