<svg width="23" height="20" viewBox="0 0 23 20" fill="none" xmlns="http://www.w3.org/2000/svg">
<path d="M5.37843 2.70467L5.54474 3.5H6.35726H21.9829L20.1243 11.5H8.44819H7.21749L7.46935 12.7047L7.7307 13.9547L7.89699 14.75H8.70953H19.3692L19.2531 15.25H17.6023H9.23099H7.43633L4.72763 2.29534L4.56134 1.5H3.7488H1V1H5.02199L5.37843 2.70467ZM19.3881 14.669L19.388 14.6691L19.3881 14.669ZM18.2942 16.972L19.0131 16.283L18.9856 16.4015L19.7129 16.7469C20.1321 16.946 20.4028 17.356 20.4028 17.8125C20.4028 18.4477 19.8702 19 19.1667 19C18.4632 19 17.9306 18.4477 17.9306 17.8125C17.9306 17.4879 18.0656 17.1911 18.2942 16.972ZM7.6826 16.4278L7.61029 16.0819L8.5391 16.972C8.76776 17.1911 8.90278 17.4879 8.90278 17.8125C8.90278 18.4477 8.37019 19 7.66667 19C6.96315 19 6.43056 18.4477 6.43056 17.8125C6.43056 17.3846 6.66779 16.9987 7.04416 16.787L7.6826 16.4278ZM5.01242 0.954225L5.01243 0.954281L5.01242 0.954225Z" stroke="#65236A" stroke-width="2"/>
</svg>
