<svg width="16" height="16" viewBox="0 0 16 16" fill="none" xmlns="http://www.w3.org/2000/svg">
<path d="M16 1.71429V14.2857C16 15.2325 15.2325 16 14.2857 16H1.71429C0.7675 16 0 15.2325 0 14.2857V1.71429C0 0.7675 0.7675 0 1.71429 0H14.2857C15.2325 0 16 0.7675 16 1.71429ZM10.8571 9.42857C10.3371 9.42857 9.86347 9.62718 9.50775 9.95254L7.08068 8.49629C7.16357 8.17061 7.16357 7.82936 7.08068 7.50368L9.50775 6.04743C9.86347 6.37282 10.3371 6.57143 10.8571 6.57143C11.9617 6.57143 12.8571 5.676 12.8571 4.57143C12.8571 3.46686 11.9617 2.57143 10.8571 2.57143C9.75257 2.57143 8.85714 3.46686 8.85714 4.57143C8.85714 4.74275 8.87875 4.90904 8.91929 5.06775L6.49221 6.524C6.13654 6.19861 5.66293 6 5.14286 6C4.03829 6 3.14286 6.89543 3.14286 8C3.14286 9.10457 4.03829 10 5.14286 10C5.66293 10 6.13654 9.80139 6.49225 9.47604L8.91932 10.9323C8.87795 11.0945 8.85708 11.2612 8.85718 11.4286C8.85718 12.5332 9.75261 13.4286 10.8572 13.4286C11.9618 13.4286 12.8572 12.5332 12.8572 11.4286C12.8571 10.324 11.9617 9.42857 10.8571 9.42857Z" fill="#929192"/>
</svg>
