<svg width="45" height="45" viewBox="0 0 45 45" fill="none" xmlns="http://www.w3.org/2000/svg">
<path d="M9.87409 18.3085C11.6227 13.0099 16.6021 9.20455 22.5 9.20455C25.6704 9.20455 28.5341 10.3295 30.7841 12.1705L37.3295 5.625C33.3409 2.14773 28.2272 0 22.5 0C13.6313 0 5.99575 5.05931 2.32495 12.4688L9.87409 18.3085Z" fill="#EA4335"/>
<path d="M30.0764 33.7736C28.033 35.0931 25.4364 35.7954 22.5 35.7954C16.6247 35.7954 11.6609 32.0191 9.89435 26.7523L2.32025 32.5031C5.98649 39.9255 13.6219 45 22.5 45C27.9991 45 33.2538 43.0451 37.1891 39.3742L30.0764 33.7736Z" fill="#34A853"/>
<path d="M37.1891 39.3742C41.3047 35.5352 43.9773 29.8194 43.9773 22.5C43.9773 21.1705 43.7727 19.7386 43.4659 18.4091H22.5V27.1023H34.5682C33.9727 30.0255 32.3743 32.2898 30.0764 33.7736L37.1891 39.3742Z" fill="#4A90E2"/>
<path d="M9.89434 26.7523C9.44686 25.4181 9.20455 23.9883 9.20455 22.5C9.20455 21.0343 9.43957 19.6253 9.87413 18.3085L2.32498 12.4688C0.818601 15.4883 0 18.8914 0 22.5C0 26.0992 0.833964 29.4941 2.32024 32.5031L9.89434 26.7523Z" fill="#FBBC05"/>
</svg>
