<svg width="21" height="18" viewBox="0 0 21 18" fill="none" xmlns="http://www.w3.org/2000/svg">
<path d="M12.0192 2.48051L12.0187 2.48098L11.2107 3.29659L10.5003 4.0137L9.78989 3.29659L8.98189 2.48098L8.98073 2.4798C7.24564 0.722559 4.48468 0.492011 2.6801 1.99818C0.55861 3.77219 0.445761 6.9578 2.34403 8.88069C2.34408 8.88074 2.34412 8.88079 2.34417 8.88084C2.34427 8.88093 2.34436 8.88103 2.34445 8.88112L10.2802 16.908L12.0192 2.48051ZM12.0192 2.48051C13.7589 0.722077 16.516 0.492362 18.3202 1.99796C20.442 3.77196 20.5548 6.95761 18.6527 8.88049L18.6525 8.88069M12.0192 2.48051L18.6525 8.88069M18.6525 8.88069L10.7163 16.908M18.6525 8.88069L10.7163 16.908M10.7163 16.908L10.7161 16.9082C10.5949 17.0306 10.4016 17.0306 10.2804 16.9082L10.7163 16.908Z" stroke="#65236A" stroke-width="2"/>
</svg>
