<svg width="400" height="86" viewBox="0 0 400 86" fill="none" xmlns="http://www.w3.org/2000/svg">
<g filter="url(#filter0_d_108_536)">
<path d="M0 54.5C0 37.103 14.103 23 31.5 23H368.5C385.897 23 400 37.103 400 54.5C400 71.897 385.897 86 368.5 86H31.5C14.103 86 0 71.897 0 54.5Z" fill="white"/>
<path d="M234 35C234 54.33 218.33 70 199 70C179.67 70 164 54.33 164 35C164 15.67 179.67 0 199 0C218.33 0 234 15.67 234 35Z" fill="white"/>
</g>
<defs>
<filter id="filter0_d_108_536" x="-5" y="-5" width="410" height="96" filterUnits="userSpaceOnUse" color-interpolation-filters="sRGB">
<feFlood flood-opacity="0" result="BackgroundImageFix"/>
<feColorMatrix in="SourceAlpha" type="matrix" values="0 0 0 0 0 0 0 0 0 0 0 0 0 0 0 0 0 0 127 0" result="hardAlpha"/>
<feOffset/>
<feGaussianBlur stdDeviation="2.5"/>
<feComposite in2="hardAlpha" operator="out"/>
<feColorMatrix type="matrix" values="0 0 0 0 0.396078 0 0 0 0 0.137255 0 0 0 0 0.415686 0 0 0 0.2 0"/>
<feBlend mode="normal" in2="BackgroundImageFix" result="effect1_dropShadow_108_536"/>
<feBlend mode="normal" in="SourceGraphic" in2="effect1_dropShadow_108_536" result="shape"/>
</filter>
</defs>
</svg>
