<svg width="9" height="12" viewBox="0 0 9 12" fill="none" xmlns="http://www.w3.org/2000/svg">
<path d="M8.6625 1.71429C8.84888 1.71429 9 1.57037 9 1.39286V0.321429C9 0.14392 8.84888 0 8.6625 0H0.3375C0.151116 0 0 0.14392 0 0.321429V1.52004C0 1.69754 0.151116 1.84146 0.3375 1.84146H2.736C3.50404 1.84146 4.09334 2.1082 4.45078 2.57143H0.3375C0.151116 2.57143 0 2.71535 0 2.89286V3.96429C0 4.14179 0.151116 4.28571 0.3375 4.28571H4.80254C4.62769 5.2523 3.87551 5.85621 2.7 5.85621H0.3375C0.151116 5.85621 0 6.00013 0 6.17764V7.59761C0 7.68731 0.039375 7.77295 0.108591 7.8338L4.75068 11.9148C4.81302 11.9696 4.89475 12 4.97959 12H7.30164C7.60888 12 7.75631 11.6409 7.53055 11.4424L3.287 7.71177C5.43853 7.64909 6.97542 6.28154 7.17719 4.28571H8.6625C8.84888 4.28571 9 4.14179 9 3.96429V2.89286C9 2.71535 8.84888 2.57143 8.6625 2.57143H7.01184C6.9138 2.26229 6.77897 1.97555 6.61101 1.71429H8.6625Z" fill="white"/>
</svg>
