<svg width="5" height="7" viewBox="0 0 5 7" fill="none" xmlns="http://www.w3.org/2000/svg">
<path d="M4.8125 1C4.91605 1 5 0.916047 5 0.8125V0.1875C5 0.0839531 4.91605 0 4.8125 0H0.1875C0.0839531 0 0 0.0839531 0 0.1875V0.886688C0 0.990234 0.0839531 1.07419 0.1875 1.07419H1.52C1.94669 1.07419 2.27408 1.22978 2.47266 1.5H0.1875C0.0839531 1.5 0 1.58395 0 1.6875V2.3125C0 2.41605 0.0839531 2.5 0.1875 2.5H2.66808C2.57094 3.06384 2.15306 3.41613 1.5 3.41613H0.1875C0.0839531 3.41613 0 3.50008 0 3.60362V4.43194C0 4.48427 0.021875 4.53422 0.0603281 4.56972L2.63927 6.95028C2.6739 6.98225 2.7193 7 2.76644 7H4.05647C4.22716 7 4.30906 6.7905 4.18364 6.67472L1.82611 4.49853C3.02141 4.46197 3.87523 3.66423 3.98733 2.5H4.8125C4.91605 2.5 5 2.41605 5 2.3125V1.6875C5 1.58395 4.91605 1.5 4.8125 1.5H3.89547C3.841 1.31967 3.76609 1.15241 3.67278 1H4.8125Z" fill="#828282"/>
</svg>
