<svg width="20" height="13" viewBox="0 0 20 13" fill="none" xmlns="http://www.w3.org/2000/svg">
<path d="M19.8792 6.00573C17.9962 2.42362 14.2684 0 10 0C5.73159 0 2.00276 2.42531 0.120815 6.00607C0.0413845 6.15926 0 6.32851 0 6.50017C0 6.67183 0.0413845 6.84108 0.120815 6.99427C2.0038 10.5764 5.73159 13 10 13C14.2684 13 17.9972 10.5747 19.8792 6.99393C19.9586 6.84074 20 6.67149 20 6.49983C20 6.32818 19.9586 6.15892 19.8792 6.00573ZM10 11.375C9.01109 11.375 8.04439 11.0891 7.22214 10.5534C6.3999 10.0177 5.75903 9.25637 5.38059 8.36558C5.00215 7.47479 4.90314 6.49459 5.09606 5.54893C5.28899 4.60328 5.7652 3.73464 6.46446 3.05285C7.16372 2.37107 8.05464 1.90677 9.02455 1.71867C9.99445 1.53057 10.9998 1.62711 11.9134 1.99609C12.8271 2.36506 13.6079 2.98991 14.1574 3.79159C14.7068 4.59328 15 5.53582 15 6.5C15.0003 7.14028 14.8712 7.77435 14.6201 8.36595C14.3689 8.95755 14.0006 9.49509 13.5363 9.94784C13.0719 10.4006 12.5206 10.7597 11.9138 11.0045C11.307 11.2494 10.6567 11.3753 10 11.375ZM10 3.25C9.70248 3.25405 9.40687 3.29721 9.12118 3.37831C9.35667 3.69033 9.46968 4.07431 9.43971 4.46061C9.40973 4.8469 9.23877 5.20993 8.95781 5.48387C8.67685 5.7578 8.30451 5.92449 7.90831 5.95372C7.51211 5.98294 7.11828 5.87276 6.79826 5.64315C6.61602 6.29775 6.64892 6.99159 6.89231 7.62701C7.13571 8.26242 7.57735 8.80742 8.15507 9.1853C8.73279 9.56317 9.4175 9.7549 10.1128 9.73348C10.8082 9.71206 11.4791 9.47859 12.0312 9.06591C12.5833 8.65324 12.9888 8.08215 13.1906 7.43302C13.3923 6.78389 13.3803 6.08941 13.156 5.44733C12.9318 4.80525 12.5066 4.2479 11.9405 3.85372C11.3744 3.45955 10.6957 3.2484 10 3.25Z" fill="#65236A"/>
</svg>
