<svg width="24" height="23" viewBox="0 0 24 23" fill="none" xmlns="http://www.w3.org/2000/svg">
<path d="M7.85768 7.24982L8.12646 7.21064L8.2466 6.96704L11.1758 1.02785C11.5129 0.345201 12.4863 0.34754 12.8242 1.02821C12.8242 1.02834 12.8243 1.02847 12.8244 1.02861L15.7532 6.96704L15.8734 7.21064L16.1421 7.24982L22.6961 8.20533L22.6965 8.20538C23.4474 8.31429 23.7497 9.24182 23.2041 9.77302L23.204 9.77316L18.4624 14.3937L18.2677 14.5834L18.3137 14.8513L19.4351 21.378C19.5636 22.1288 18.7715 22.6964 18.1036 22.3452L18.1035 22.3452L12.2404 19.2633L11.9999 19.1369L11.7595 19.2633L5.89634 22.3452L5.89472 22.346C5.23039 22.6982 4.43569 22.1319 4.56469 21.378L5.68611 14.8513L5.73214 14.5834L5.53746 14.3937L0.795819 9.77316L0.795672 9.77302C0.250113 9.24182 0.552461 8.31429 1.30335 8.20538L1.30372 8.20533L7.85768 7.24982Z" stroke="black"/>
</svg>
