<svg width="18" height="16" viewBox="0 0 18 16" fill="none" xmlns="http://www.w3.org/2000/svg">
<path d="M14.4755 13.7143L14.8529 13.3446L15.3265 13.5745C15.5793 13.6972 15.75 13.9547 15.75 14.25C15.75 14.6642 15.4142 15 15 15C14.5858 15 14.25 14.6642 14.25 14.25C14.25 14.0404 14.335 13.852 14.4755 13.7143ZM5.62762 13.5992L6.11865 13.3168L6.52448 13.7144C6.66504 13.8521 6.75 14.0404 6.75 14.25C6.75 14.6642 6.41422 15 6 15C5.58579 15 5.25 14.6642 5.25 14.25C5.25 13.9736 5.39945 13.7304 5.62762 13.5992ZM4.1591 3H4.97525H16.9365L15.5728 9H6.61163H5.38639L5.63191 10.2004L4.1591 3Z" stroke="#65236A" stroke-width="2"/>
</svg>
