<svg width="22" height="20" viewBox="0 0 22 20" fill="none" xmlns="http://www.w3.org/2000/svg">
<path d="M20.0161 0H1.99375C0.908482 0 0 0.908482 0 1.99375V8.63304C0 14.7567 4.89598 19.6429 11.0098 19.6429C17.0991 19.6429 22 14.7567 22 8.63304V1.99375C22 0.89375 21.1308 0 20.0161 0ZM12.0607 13.1853C11.4518 13.7647 10.5188 13.7304 9.97857 13.1853C4.39509 7.8375 4.33616 8.02411 4.33616 7.13527C4.33616 6.30536 5.01384 5.62768 5.84375 5.62768C6.67857 5.62768 6.63438 5.81429 11.0098 10.0129C15.4589 5.74554 15.3607 5.62768 16.1906 5.62768C17.0205 5.62768 17.6982 6.30536 17.6982 7.13527C17.6982 8.00938 17.5558 7.90625 12.0607 13.1853Z" fill="#843D89" fill-opacity="0.9"/>
</svg>
