<svg width="13" height="10" viewBox="0 0 13 10" fill="none" xmlns="http://www.w3.org/2000/svg">
<path d="M12.675 6.875H12.35V4.76367C12.35 4.51562 12.2464 4.27734 12.0636 4.10156L10.0344 2.15039C9.85156 1.97461 9.60375 1.875 9.34578 1.875H8.45V0.9375C8.45 0.419922 8.01328 0 7.475 0H0.975C0.436719 0 0 0.419922 0 0.9375V7.1875C0 7.70508 0.436719 8.125 0.975 8.125H1.3C1.3 9.16016 2.17344 10 3.25 10C4.32656 10 5.2 9.16016 5.2 8.125H7.8C7.8 9.16016 8.67344 10 9.75 10C10.8266 10 11.7 9.16016 11.7 8.125H12.675C12.8537 8.125 13 7.98438 13 7.8125V7.1875C13 7.01562 12.8537 6.875 12.675 6.875ZM3.25 9.0625C2.71172 9.0625 2.275 8.64258 2.275 8.125C2.275 7.60742 2.71172 7.1875 3.25 7.1875C3.78828 7.1875 4.225 7.60742 4.225 8.125C4.225 8.64258 3.78828 9.0625 3.25 9.0625ZM9.75 9.0625C9.21172 9.0625 8.775 8.64258 8.775 8.125C8.775 7.60742 9.21172 7.1875 9.75 7.1875C10.2883 7.1875 10.725 7.60742 10.725 8.125C10.725 8.64258 10.2883 9.0625 9.75 9.0625ZM11.375 5H8.45V2.8125H9.34578L11.375 4.76367V5Z" fill="black"/>
</svg>
