<svg fill="none" height="40" viewBox="0 0 40 40" width="40" xmlns="http://www.w3.org/2000/svg"><path d="m40 29.8691c0-1.406-1.3122-3.8536-2.3835-4.8569-.0271-.2771.0168-1.2572 1.5505-2.9325.1184-.1292.1429-.3081.063-.4591-.0798-.1512-.2498-.2475-.4364-.2475h-9.5535c-.1867 0-.3566.0963-.4364.2475-.0798.151-.0554.3299.063.4591 1.5412 1.6835 1.578 2.6654 1.5501 2.9369-1.0723 1.0072-2.3831 3.45-2.3831 4.8525 0 1.5795.8387 2.7338 2.4279 3.355.1847.6806.9827 1.2367 2.0862 1.5009-.0717.1447-.1123.3045-.1123.4727 0 .5819.4768 1.0646 1.0985 1.1548v.5817c0 .7359-.4952 1.388-1.2535 1.7879.5454-.8211.4267-1.9004-.3614-2.6063-.7829-.7011-2.0569-.7012-2.84 0-.664.5946-.664 1.5622 0 2.157.2756.2467.642.3827 1.0317.3827.3898 0 .7562-.136 1.0317-.3827.1886-.1689.1886-.4427 0-.6116-.1886-.1688-.4942-.1688-.6828 0-.1923.1723-.5053.1723-.6976 0-.2876-.2574-.2876-.6764 0-.9338.4064-.3641 1.0678-.364 1.4742-.0001.5551.4972.5551 1.3061 0 1.8032-.4898.4387-1.2151.5989-1.8707.4311-1.0758-.3347-1.8323-1.1175-1.8323-2.0274v-1.8122c0-1.9863-1.358-3.3884-3.936-4.0794 1.5627-.6248 2.3862-1.7736 2.3862-3.3398 0-1.406-1.3122-3.8535-2.3835-4.8569-.0272-.2771.0168-1.2573 1.5505-2.9325.1183-.1292.1429-.308.063-.4591-.0799-.1512-.2498-.2474-.4364-.2474h-3.377c.0636-.1489.1-.3096.1-.4783v-.9734c0-.3516-.1528-.671-.4006-.9107.2478-.2396.4006-.559.4006-.9106v-.9734c0-.3516-.1528-.671-.4006-.9107.2478-.2396.4006-.559.4006-.9106v-.9734c0-.3516-.1528-.671-.4006-.9107.2478-.2397.4006-.5591.4006-.9107v-.97337c0-.3516-.1528-.671-.4006-.91066.2478-.23965.4006-.55906.4006-.91065v-.97341c0-.3516-.1528-.67101-.4006-.91066.2478-.23965.4006-.55906.4006-.91066v-.97341c0-.22168-.0613-.43049-.1681-.61489 1.7612-.37081 3.0398-1.45617 3.0398-2.734278 0-.238788-.2162-.432412-.4829-.432412h-7.7773c-.2667 0-.4829.193624-.4829.432412 0 1.278108 1.2788 2.363468 3.0398 2.734278-.1067.1845-.1679.39321-.1679.61489v.97341c0 .3516.1528.67101.4005.91066-.2477.23965-.4005.55906-.4005.91066v.97341c0 .35159.1528.671.4005.91065-.2477.23966-.4005.55906-.4005.91066v.97337c0 .3516.1528.671.4005.9107-.2477.2397-.4005.5591-.4005.9107v.9734c0 .3516.1528.671.4005.9106-.2477.2397-.4005.5591-.4005.9107v.9734c0 .3516.1528.671.4005.9106-.2477.2397-.4005.5591-.4005.9107v.9734c0 .1687.0363.3294.1.4783h-3.3774c-.1867 0-.3565.0962-.4364.2474-.0798.1511-.0553.3299.063.4591 1.5412 1.6835 1.578 2.6654 1.5501 2.9369-1.0723 1.0072-2.3831 3.45-2.3831 4.8525 0 1.566.8235 2.7148 2.3864 3.3397-2.5781.6909-3.9362 2.0931-3.9362 4.0794v1.8122c0 .9098-.7563 1.6924-1.832 2.0273-.65582.168-1.38118.0079-1.87112-.4309-.55507-.4972-.55507-1.3061 0-1.8032.40635-.3639 1.06787-.364 1.47422 0 .2876.2574.2876.6764 0 .9338-.1922.1723-.50528.1723-.69757 0-.18863-.1688-.49423-.1688-.68287 0-.18853.1689-.18853.4427 0 .6116.56892.5094 1.49464.5094 2.06344 0 .664-.5947.664-1.5623 0-2.157-.783-.7012-2.057-.7012-2.83998 0-.78813.7058-.90681 1.7851-.36139 2.6063-.75831-.3999-1.2535-1.0521-1.2535-1.7879v-.5817c.6217-.0902 1.09845-.5729 1.09845-1.1548 0-.1682-.04056-.3279-.11224-.4727 1.10349-.2642 1.90149-.8202 2.08616-1.5009 1.5892-.6212 2.4279-1.7756 2.4279-3.355 0-1.4025-1.3108-3.8453-2.38315-4.8525-.0279-.2715.0089-1.2534 1.55005-2.9369.1184-.1292.1428-.3081.063-.4591-.0798-.1512-.2498-.2474-.4364-.2474h-9.5536c-.18671 0-.356569.0962-.436402.2474-.079832.151-.055367.3299.062987.4591 1.533555 1.6752 1.577555 2.6554 1.550515 2.9325-1.07131 1.0034-2.3835 3.4509-2.3835 4.8569 0 1.5796.838672 2.734 2.42781 3.3551.18467.6806.98267 1.2366 2.08606 1.5008-.07168.1447-.11224.3045-.11224.4727 0 .582.47685 1.0647 1.09867 1.1548v.5816c0 1.6905 1.77917 3.066 3.96609 3.066.49756 0 .97361-.0719 1.41281-.2018.1318-.0326.4493-.1514.4762-.1688 1.2363-.5198 2.0772-1.5332 2.0772-2.6954v-1.8122c0-1.6462 1.1806-2.7613 3.5094-3.3174.3756.3323.9271.5957 1.5888.7541-.0715.1447-.1122.3044-.1122.4727 0 .6458.5867 1.1712 1.3079 1.1712h.5471c.7212 0 1.3079-.5254 1.3079-1.1712 0-.1683-.0405-.328-.1122-.4727.6616-.1584 1.2132-.4218 1.5887-.7541 2.3288.5561 3.5094 1.6712 3.5094 3.3174v1.8122c0 1.1622.8409 2.1756 2.0772 2.6954.0269.0174.3447.1362.4765.1689.4391.1298.915.2017 1.4124.2017 2.1869 0 3.9661-1.3755 3.9661-3.066v-.5816c.6218-.0902 1.0987-.5729 1.0987-1.1548 0-.1682-.0407-.3279-.1123-.4727 1.1034-.2642 1.9014-.8202 2.0861-1.5008 1.5892-.6211 2.4279-1.7754 2.4279-3.355zm-31.38538-5.0765h-.77268c.10291-1.5155.72837-2.2933.98901-2.5546h.95745c-.91604 1.181-1.14545 2.0365-1.17378 2.5546zm-.95777-2.5546c-.3453.5333-.70916 1.3647-.7818 2.5546h-1.7663c-.07264-1.1899-.4365-2.0214-.7818-2.5546zm-5.47884 0h.9728c.25527.2615.88599 1.0527.99051 2.5546h-.78964c-.02822-.5181-.25763-1.3736-1.17367-2.5546zm-1.212293 7.6311c0-1.1296 1.170453-3.3359 2.065453-4.2117h5.89989c.89672.8768 2.06964 3.0836 2.06964 4.2117 0 1.2873-.6529 2.1445-1.99539 2.6184h-6.04453c-1.34224-.4738-1.995063-1.3311-1.995063-2.6184zm7.407153 3.4832c-.40817.3675-1.29899.6742-2.38972.6742-1.09061 0-1.98143-.3067-2.38972-.6742zm-3.00542 1.8453c0-.1689.15345-.3063.34208-.3063h.54714c.18863 0 .34207.1374.34207.3063 0 .169-.15344.3064-.34207.3064h-.54714c-.18863 0-.34208-.1374-.34208-.3064zm17.26405-12.5713h-.7901c.1028-1.5155.7284-2.2932.989-2.5546h.9748c-.9161 1.181-1.1455 2.0365-1.1737 2.5546zm-3.5233 0c-.0726-1.1899-.4365-2.0214-.7818-2.5546h3.3299c-.3453.5333-.7091 1.3647-.7818 2.5546zm.3578-3.8978v-.9734c0-.2637.2396-.4782.5341-.4782.2944 0 .534.2145.534.4782v.9734c0 .2637-.2394.4783-.534.4783-.2945 0-.5341-.2146-.5341-.4783zm0-2.7947v-.9734c0-.2637.2396-.4783.5341-.4783.2944 0 .534.2146.534.4783v.9734c0 .2637-.2394.4782-.534.4782-.2945 0-.5341-.2145-.5341-.4782zm0-2.7948v-.9734c0-.2637.2396-.4783.5341-.4783.2944 0 .534.2146.534.4783v.9734c0 .2636-.2394.4782-.534.4782-.2945 0-.5341-.2146-.5341-.4782zm0-2.7948v-.97336c0-.26367.2396-.47825.5341-.47825.2944 0 .534.21458.534.47825v.97336c0 .2637-.2394.4783-.534.4783-.2945 0-.5341-.2146-.5341-.4783zm0-2.79477v-.97341c0-.26367.2396-.47825.5341-.47825.2944 0 .534.21458.534.47825v.97341c0 .26367-.2394.47824-.534.47824-.2945 0-.5341-.21457-.5341-.47824zm0-2.79473v-.9734c0-.26368.2396-.47825.5341-.47825.2944 0 .534.21457.534.47825v.9734c0 .26368-.2394.47825-.534.47825-.2945 0-.5341-.21457-.5341-.47825zm-2.7885-3.890261h6.645c-.3462.887881-1.7274 1.573691-3.3225 1.573691s-2.9763-.68581-3.3225-1.573691zm-.4826 19.207161h.9555c.2553.2615.886 1.0527.9905 2.5546h-.7724c-.0282-.518-.2576-1.3735-1.1736-2.5546zm-1.2123 7.6311c0-1.1281 1.1728-3.3349 2.0696-4.2117h5.8999c.895.8757 2.0654 3.082 2.0654 4.2117 0 1.2873-.6528 2.1446-1.995 2.6184h-6.0445c-1.3425-.4738-1.9954-1.3311-1.9954-2.6184zm5.291 5.0222c.1887 0 .3422.1374.3422.3064 0 .1689-.1534.3064-.3422.3064h-.5471c-.1886 0-.3422-.1374-.3422-.3064s.1534-.3064.3422-.3064zm-.2736-.8648c-1.0906 0-1.9814-.3066-2.3897-.6742h4.7793c-.4081.3676-1.2989.6742-2.3896.6742zm16.6483-7.0675h-.79c.1027-1.5155.7283-2.2933.989-2.5546h.9748c-.9162 1.181-1.1456 2.0365-1.1738 2.5546zm-.9753-2.5546c-.3452.5333-.7091 1.3647-.7818 2.5546h-1.7661c-.0727-1.1899-.4365-2.0214-.7818-2.5546zm-5.4614 0h.9555c.2553.2615.886 1.0527.9905 2.5546h-.7723c-.0281-.5181-.2576-1.3736-1.1737-2.5546zm4.0789 12.6533c.1886 0 .3422.1374.3422.3063 0 .169-.1535.3064-.3422.3064h-.5472c-.1886 0-.3422-.1374-.3422-.3064 0-.1689.1535-.3063.3422-.3063zm-.2737-.8648c-1.0906 0-1.9814-.3067-2.3896-.6742h4.7794c-.4082.3675-1.2991.6742-2.3898.6742zm3.0224-1.539h-6.0445c-1.3425-.4739-1.9954-1.3312-1.9954-2.6184 0-1.1281 1.1728-3.3349 2.0696-4.2117h5.8999c.895.8757 2.0655 3.082 2.0655 4.2117 0 1.2873-.6528 2.1446-1.9951 2.6184z" fill="#000"/></svg>