<svg width="4" height="7" viewBox="0 0 4 7" fill="none" xmlns="http://www.w3.org/2000/svg">
<path d="M3.85 1C3.93284 1 4 0.916047 4 0.8125V0.1875C4 0.0839531 3.93284 0 3.85 0H0.15C0.0671625 0 0 0.0839531 0 0.1875V0.886688C0 0.990234 0.0671625 1.07419 0.15 1.07419H1.216C1.55735 1.07419 1.81926 1.22978 1.97812 1.5H0.15C0.0671625 1.5 0 1.58395 0 1.6875V2.3125C0 2.41605 0.0671625 2.5 0.15 2.5H2.13446C2.05675 3.06384 1.72245 3.41613 1.2 3.41613H0.15C0.0671625 3.41613 0 3.50008 0 3.60362V4.43194C0 4.48427 0.0175 4.53422 0.0482625 4.56972L2.11141 6.95028C2.13912 6.98225 2.17544 7 2.21315 7H3.24518C3.38173 7 3.44725 6.7905 3.34691 6.67472L1.46089 4.49853C2.41712 4.46197 3.10019 3.66423 3.18986 2.5H3.85C3.93284 2.5 4 2.41605 4 2.3125V1.6875C4 1.58395 3.93284 1.5 3.85 1.5H3.11637C3.0728 1.31967 3.01288 1.15241 2.93823 1H3.85Z" fill="#B4B4B4"/>
</svg>
