<svg width="30" height="30" viewBox="0 0 30 30" fill="none" xmlns="http://www.w3.org/2000/svg">
<path d="M26.7857 30H3.21429C1.43906 30 0 28.5609 0 26.7857V3.21429C0 1.43906 1.43906 0 3.21429 0H26.7857C28.5609 0 30 1.43906 30 3.21429V26.7857C30 28.5609 28.5609 30 26.7857 30ZM13.0791 23.4335L25.4005 11.1121C25.8189 10.6937 25.8189 10.0153 25.4005 9.59692L23.8853 8.08172C23.4669 7.66333 22.7885 7.66326 22.37 8.08172L12.3214 18.1302L7.62998 13.4388C7.21158 13.0204 6.53317 13.0204 6.11471 13.4388L4.59951 14.954C4.18112 15.3724 4.18112 16.0508 4.59951 16.4692L11.5638 23.4335C11.9823 23.852 12.6606 23.852 13.0791 23.4335Z" fill="#30AA50"/>
</svg>
