<svg width="7" height="11" viewBox="0 0 7 11" fill="none" xmlns="http://www.w3.org/2000/svg">
<path d="M6.7375 1.57143C6.88247 1.57143 7 1.4395 7 1.27679V0.294643C7 0.131926 6.88247 0 6.7375 0H0.2625C0.117534 0 0 0.131926 0 0.294643V1.39337C0 1.55608 0.117534 1.68801 0.2625 1.68801H2.128C2.72536 1.68801 3.18371 1.93251 3.46172 2.35714H0.2625C0.117534 2.35714 0 2.48907 0 2.65179V3.63393C0 3.79664 0.117534 3.92857 0.2625 3.92857H3.73531C3.59931 4.81461 3.01429 5.3682 2.1 5.3682H0.2625C0.117534 5.3682 0 5.50012 0 5.66284V6.96447C0 7.0467 0.030625 7.1252 0.0844594 7.18099L3.69497 10.9219C3.74346 10.9721 3.80703 11 3.87301 11H5.67906C5.91802 11 6.03269 10.6708 5.8571 10.4888L2.55655 7.06912C4.22997 7.01167 5.42533 5.75808 5.58226 3.92857H6.7375C6.88247 3.92857 7 3.79664 7 3.63393V2.65179C7 2.48907 6.88247 2.35714 6.7375 2.35714H5.45366C5.3774 2.07377 5.27253 1.81092 5.14189 1.57143H6.7375Z" fill="#949494"/>
</svg>
