<svg width="8" height="11" viewBox="0 0 8 11" fill="none" xmlns="http://www.w3.org/2000/svg">
<path d="M5.34075 0.783881L5.40494 0.937504H5.57143H7.71227C7.71382 0.938305 7.71827 0.941025 7.72406 0.947986C7.73696 0.963513 7.75 0.992973 7.75 1.03125V1.71875C7.75 1.75703 7.73696 1.78649 7.72406 1.80202C7.71827 1.80898 7.71382 1.8117 7.71227 1.8125H0.287728C0.28618 1.8117 0.281729 1.80898 0.275944 1.80202C0.263037 1.78649 0.25 1.75703 0.25 1.71875V1.03125C0.25 0.992975 0.263037 0.963515 0.275944 0.947986C0.281729 0.941025 0.28618 0.938305 0.287728 0.937504H2.42857H2.59506L2.65925 0.783881L2.8271 0.382124L2.82712 0.382128L2.82803 0.379877C2.84762 0.331674 2.87551 0.297603 2.90307 0.276998C2.92993 0.256915 2.95561 0.2499 2.97742 0.250001V0.250004H2.97857L5.01964 0.250004L5.01986 0.250004C5.04241 0.249984 5.06876 0.257287 5.09615 0.277675C5.12422 0.298566 5.15252 0.332917 5.17258 0.381372L5.1729 0.382124L5.34075 0.783881ZM1.01474 10.5382C0.894669 10.3937 0.821429 10.1894 0.821429 9.96875V3H7.17857V9.96875C7.17857 10.1894 7.10533 10.3937 6.98526 10.5382C6.8663 10.6813 6.71596 10.75 6.57143 10.75H1.42857C1.28404 10.75 1.1337 10.6813 1.01474 10.5382ZM5.32 4.06588C5.22574 4.17929 5.17857 4.3247 5.17857 4.46875V9.28125C5.17857 9.42531 5.22574 9.57072 5.32 9.68412C5.41537 9.79886 5.55571 9.875 5.71429 9.875C5.87286 9.875 6.01321 9.79886 6.10858 9.68412C6.20283 9.57072 6.25 9.42531 6.25 9.28125V4.46875C6.25 4.32469 6.20283 4.17929 6.10858 4.06588C6.01321 3.95114 5.87286 3.875 5.71429 3.875C5.55571 3.875 5.41537 3.95114 5.32 4.06588ZM3.60571 4.06588C3.51145 4.17929 3.46429 4.32469 3.46429 4.46875V9.28125C3.46429 9.42531 3.51145 9.57072 3.60571 9.68412C3.70108 9.79886 3.84143 9.875 4 9.875C4.15857 9.875 4.29892 9.79886 4.39429 9.68412C4.48855 9.57072 4.53571 9.42531 4.53571 9.28125V4.46875C4.53571 4.32469 4.48855 4.17929 4.39429 4.06588C4.29892 3.95114 4.15857 3.875 4 3.875C3.84143 3.875 3.70108 3.95114 3.60571 4.06588ZM1.89142 4.06588C1.79717 4.17929 1.75 4.32469 1.75 4.46875V9.28125C1.75 9.42531 1.79717 9.57072 1.89142 9.68412C1.98679 9.79886 2.12714 9.875 2.28571 9.875C2.44429 9.875 2.58463 9.79886 2.68 9.68412C2.77426 9.57072 2.82143 9.42531 2.82143 9.28125V4.46875C2.82143 4.32469 2.77426 4.17929 2.68 4.06588C2.58463 3.95114 2.44429 3.875 2.28571 3.875C2.12714 3.875 1.9868 3.95114 1.89142 4.06588ZM5.01964 3.76679e-06H2.97857C2.899 -0.000364272 2.82094 0.0262443 2.75336 0.0767811C2.68577 0.127318 2.63139 0.199738 2.59643 0.285746L5.01964 3.76679e-06Z" fill="#AA0000" stroke="#65236A" stroke-width="0.5"/>
</svg>
