<svg width="45" height="59" viewBox="0 0 45 59" fill="none" xmlns="http://www.w3.org/2000/svg">
<path d="M26.25 15.6719V0H2.8125C1.25391 0 0 1.23301 0 2.76562V56.2344C0 57.767 1.25391 59 2.8125 59H42.1875C43.7461 59 45 57.767 45 56.2344V18.4375H29.0625C27.5156 18.4375 26.25 17.193 26.25 15.6719ZM33.75 42.8672C33.75 43.6277 33.1172 44.25 32.3438 44.25H12.6562C11.8828 44.25 11.25 43.6277 11.25 42.8672V41.9453C11.25 41.1848 11.8828 40.5625 12.6562 40.5625H32.3438C33.1172 40.5625 33.75 41.1848 33.75 41.9453V42.8672ZM33.75 35.4922C33.75 36.2527 33.1172 36.875 32.3438 36.875H12.6562C11.8828 36.875 11.25 36.2527 11.25 35.4922V34.5703C11.25 33.8098 11.8828 33.1875 12.6562 33.1875H32.3438C33.1172 33.1875 33.75 33.8098 33.75 34.5703V35.4922ZM33.75 27.1953V28.1172C33.75 28.8777 33.1172 29.5 32.3438 29.5H12.6562C11.8828 29.5 11.25 28.8777 11.25 28.1172V27.1953C11.25 26.4348 11.8828 25.8125 12.6562 25.8125H32.3438C33.1172 25.8125 33.75 26.4348 33.75 27.1953ZM45 14.0471V14.75H30V0H30.7148C31.4648 0 32.1797 0.288086 32.707 0.806641L44.1797 12.0996C44.707 12.6182 45 13.3211 45 14.0471Z" fill="#D8D8D8"/>
</svg>
