<svg width="5" height="8" viewBox="0 0 5 8" fill="none" xmlns="http://www.w3.org/2000/svg">
<path d="M4.8125 1.14286C4.91605 1.14286 5 1.04691 5 0.928571V0.214286C5 0.0959464 4.91605 0 4.8125 0H0.1875C0.0839531 0 0 0.0959464 0 0.214286V1.01336C0 1.1317 0.0839531 1.22764 0.1875 1.22764H1.52C1.94669 1.22764 2.27408 1.40546 2.47266 1.71429H0.1875C0.0839531 1.71429 0 1.81023 0 1.92857V2.64286C0 2.7612 0.0839531 2.85714 0.1875 2.85714H2.66808C2.57094 3.50154 2.15306 3.90414 1.5 3.90414H0.1875C0.0839531 3.90414 0 4.00009 0 4.11843V5.06507C0 5.12488 0.021875 5.18196 0.0603281 5.22254L2.63927 7.94318C2.6739 7.97971 2.7193 8 2.76644 8H4.05647C4.22716 8 4.30906 7.76057 4.18364 7.62825L1.82611 5.14118C3.02141 5.09939 3.87523 4.1877 3.98733 2.85714H4.8125C4.91605 2.85714 5 2.7612 5 2.64286V1.92857C5 1.81023 4.91605 1.71429 4.8125 1.71429H3.89547C3.841 1.5082 3.76609 1.31704 3.67278 1.14286H4.8125Z" fill="#843D89"/>
</svg>
