<svg width="17" height="12" viewBox="0 0 17 12" fill="none" xmlns="http://www.w3.org/2000/svg">
<path d="M16.5033 5.49911L14.9494 3.93214C14.6306 3.61071 14.1977 3.43125 13.7461 3.43125H12.75V0.857143C12.75 0.383036 12.3702 0 11.9 0H0.85C0.379844 0 0 0.383036 0 0.857143V9.85714C0 11.0411 0.950938 12 2.125 12C2.82359 12 3.43719 11.6545 3.825 11.1321C4.21281 11.6571 4.82641 12 5.525 12C6.69906 12 7.65 11.0411 7.65 9.85714C7.65 9.70982 7.63406 9.56786 7.6075 9.42857H11.9425C11.9133 9.56786 11.9 9.70982 11.9 9.85714C11.9 11.0411 12.8509 12 14.025 12C15.1991 12 16.15 11.0411 16.15 9.85714C16.15 9.70982 16.1341 9.56786 16.1075 9.42857H16.575C16.8088 9.42857 17 9.23571 17 9V6.70982C17 6.25446 16.822 5.82054 16.5033 5.49911ZM2.125 10.7143C1.6575 10.7143 1.275 10.3286 1.275 9.85714C1.275 9.38571 1.6575 9 2.125 9C2.5925 9 2.975 9.38571 2.975 9.85714C2.975 10.3286 2.5925 10.7143 2.125 10.7143ZM5.525 10.7143C5.0575 10.7143 4.675 10.3286 4.675 9.85714C4.675 9.38571 5.0575 9 5.525 9C5.9925 9 6.375 9.38571 6.375 9.85714C6.375 10.3286 5.9925 10.7143 5.525 10.7143ZM12.75 4.71429H13.7461C13.8603 4.71429 13.9666 4.75982 14.0463 4.84018L15.1964 6H12.75V4.71429ZM14.025 10.7143C13.5575 10.7143 13.175 10.3286 13.175 9.85714C13.175 9.38571 13.5575 9 14.025 9C14.4925 9 14.875 9.38571 14.875 9.85714C14.875 10.3286 14.4925 10.7143 14.025 10.7143Z" fill="white"/>
</svg>
