<svg width="315" height="47" viewBox="0 0 315 47" fill="none" xmlns="http://www.w3.org/2000/svg">
<g clip-path="url(#clip0_108_544)">
<path d="M298 32.125C303.279 32.125 307.562 27.8418 307.562 22.5625C307.562 17.2832 303.279 13 298 13C292.721 13 288.438 17.2832 288.438 22.5625C288.438 27.8418 292.721 32.125 298 32.125ZM306.5 34.25H302.841C301.367 34.9273 299.727 35.3125 298 35.3125C296.273 35.3125 294.64 34.9273 293.159 34.25H289.5C284.805 34.25 281 38.0551 281 42.75V43.8125C281 45.5723 282.428 47 284.188 47H311.812C313.572 47 315 45.5723 315 43.8125V42.75C315 38.0551 311.195 34.25 306.5 34.25Z" fill="#949494"/>
</g>
<path d="M179.001 9.96055L174.365 1.25977C173.951 0.478711 173.215 0 172.429 0H143.568C142.783 0 142.047 0.478711 141.632 1.25977L136.996 9.96055C134.603 14.4537 136.725 20.7021 141.197 21.416C141.518 21.4664 141.847 21.4916 142.175 21.4916C144.29 21.4916 146.161 20.3998 147.447 18.7117C148.733 20.3998 150.612 21.4916 152.719 21.4916C154.834 21.4916 156.706 20.3998 157.991 18.7117C159.277 20.3998 161.156 21.4916 163.264 21.4916C165.378 21.4916 167.25 20.3998 168.536 18.7117C169.829 20.3998 171.7 21.4916 173.808 21.4916C174.143 21.4916 174.465 21.4664 174.786 21.416C179.273 20.7105 181.401 14.4621 179.001 9.96055ZM173.822 24.1875C173.108 24.1875 172.4 24.0615 171.715 23.8684V32.25H144.283V23.8684C143.597 24.0531 142.89 24.1875 142.175 24.1875C141.747 24.1875 141.311 24.1539 140.889 24.0867C140.489 24.0195 140.096 23.9104 139.718 23.7844V40.3125C139.718 41.799 140.739 43 142.004 43H174.008C175.272 43 176.294 41.799 176.294 40.3125V23.7844C175.908 23.9188 175.522 24.0279 175.122 24.0867C174.686 24.1539 174.258 24.1875 173.822 24.1875Z" fill="#65236A"/>
<path d="M18.0095 22.5234L6.16715 32.354V42.9642C6.16715 43.2389 6.27543 43.5024 6.46816 43.6966C6.66089 43.8909 6.92229 44 7.19485 44L14.3926 43.9812C14.6643 43.9799 14.9243 43.8701 15.116 43.676C15.3076 43.4819 15.4152 43.2192 15.4152 42.9454V36.7492C15.4152 36.4745 15.5234 36.211 15.7162 36.0167C15.9089 35.8225 16.1703 35.7134 16.4429 35.7134H20.5536C20.8262 35.7134 21.0876 35.8225 21.2803 36.0167C21.4731 36.211 21.5813 36.4745 21.5813 36.7492V42.9409C21.5809 43.0772 21.6072 43.2122 21.6587 43.3383C21.7101 43.4643 21.7857 43.5789 21.8812 43.6754C21.9767 43.7719 22.0901 43.8485 22.215 43.9008C22.3399 43.953 22.4738 43.9799 22.609 43.9799L29.8042 44C30.0768 44 30.3382 43.8909 30.5309 43.6966C30.7236 43.5024 30.8319 43.2389 30.8319 42.9642V32.3469L18.9922 22.5234C18.853 22.4103 18.6796 22.3486 18.5008 22.3486C18.322 22.3486 18.1486 22.4103 18.0095 22.5234ZM36.7155 29.2051L31.3458 24.7439V15.7769C31.3458 15.5708 31.2646 15.3732 31.12 15.2275C30.9755 15.0818 30.7794 15 30.575 15H26.978C26.7736 15 26.5776 15.0818 26.433 15.2275C26.2885 15.3732 26.2073 15.5708 26.2073 15.7769V20.4776L20.4567 15.7089C19.9048 15.2512 19.2123 15.0009 18.4976 15.0009C17.7829 15.0009 17.0904 15.2512 16.5386 15.7089L0.279726 29.2051C0.201677 29.2701 0.137104 29.35 0.0896962 29.4402C0.0422884 29.5304 0.0129752 29.6291 0.00343133 29.7307C-0.00611253 29.8323 0.00430006 29.9348 0.0340741 30.0324C0.0638482 30.1299 0.1124 30.2206 0.176956 30.2992L1.81485 32.3061C1.87923 32.385 1.95842 32.4504 2.04788 32.4984C2.13734 32.5464 2.23532 32.5762 2.33621 32.586C2.4371 32.5958 2.53891 32.5854 2.63583 32.5555C2.73274 32.5256 2.82285 32.4767 2.901 32.4117L18.0095 19.869C18.1486 19.756 18.322 19.6943 18.5008 19.6943C18.6796 19.6943 18.853 19.756 18.9922 19.869L34.1013 32.4117C34.1793 32.4767 34.2693 32.5257 34.366 32.5557C34.4628 32.5857 34.5645 32.5962 34.6653 32.5866C34.7661 32.5769 34.8641 32.5474 34.9536 32.4996C35.043 32.4518 35.1223 32.3867 35.1868 32.3081L36.8247 30.3011C36.8892 30.2221 36.9375 30.1309 36.9669 30.0329C36.9964 29.935 37.0063 29.8321 36.9961 29.7303C36.986 29.6284 36.956 29.5296 36.9078 29.4395C36.8596 29.3493 36.7943 29.2697 36.7155 29.2051Z" fill="#949494"/>
<defs>
<clipPath id="clip0_108_544">
<rect width="34" height="34" fill="white" transform="translate(281 13)"/>
</clipPath>
</defs>
</svg>
