<svg width="18" height="18" viewBox="0 0 18 18" fill="none" xmlns="http://www.w3.org/2000/svg">
<g clip-path="url(#clip0_2_36)">
<path d="M10.5919 9.00082L17.6702 1.92254C18.1099 1.48315 18.1099 0.770222 17.6702 0.330831C17.2304 -0.108934 16.5182 -0.108934 16.0785 0.330831L9.00019 7.40911L1.92154 0.330831C1.48177 -0.108934 0.76959 -0.108934 0.329824 0.330831C-0.109941 0.770222 -0.109941 1.48315 0.329824 1.92254L7.40848 9.00082L0.329824 16.0791C-0.109941 16.5185 -0.109941 17.2314 0.329824 17.6708C0.549707 17.8903 0.837881 18.0003 1.12568 18.0003C1.41348 18.0003 1.70165 17.8903 1.92154 17.6704L9.00019 10.5922L16.0785 17.6704C16.2983 17.8903 16.5865 18.0003 16.8743 18.0003C17.1621 18.0003 17.4503 17.8903 17.6702 17.6704C18.1099 17.231 18.1099 16.5181 17.6702 16.0787L10.5919 9.00082Z" fill="black"/>
</g>
<defs>
<clipPath id="clip0_2_36">
<rect width="18" height="18" fill="white"/>
</clipPath>
</defs>
</svg>
